<?xml version="1.0" standalone="no"?>
<!DOCTYPE svg PUBLIC "-//W3C//DTD SVG 20010904//EN"
 "http://www.w3.org/TR/2001/REC-SVG-20010904/DTD/svg10.dtd">
<svg version="1.0" xmlns="http://www.w3.org/2000/svg"
 width="1070.000000pt" height="1280.000000pt" viewBox="0 0 1070.000000 1280.000000"
 preserveAspectRatio="xMidYMid meet">
<metadata>
Created by potrace 1.15, written by Peter Selinger 2001-2017
</metadata>
<g transform="translate(0.000000,1280.000000) scale(0.100000,-0.100000)"
fill="#000000" stroke="none">
<path d="M0 6475 c0 -5943 1 -6325 17 -6325 16 0 2364 280 2958 353 l260 32 3
2903 2 2902 258 -228 c141 -125 1332 -1175 2647 -2332 1314 -1158 2817 -2482
3340 -2942 l950 -838 133 0 132 0 0 968 c-2 2677 -19 11334 -23 11338 -3 3
-155 -13 -338 -35 -184 -22 -597 -72 -919 -111 -322 -39 -792 -95 -1045 -126
-253 -31 -561 -68 -685 -82 l-225 -27 -5 -2869 -5 -2868 -390 359 c-214 197
-1459 1342 -2765 2543 -1306 1202 -2748 2528 -3204 2947 l-829 763 -133 0
-134 0 0 -6325z"/>
</g>
</svg>
